<svg width="69" height="72" viewBox="0 0 69 72" fill="none" xmlns="http://www.w3.org/2000/svg">
<path d="M68.1883 70.4452L35.2763 62.4902V42.7122C35.2763 42.4862 35.1693 42.2742 34.9873 42.1412L21.8703 32.4982L27.4553 26.1022C27.4633 26.0932 27.4643 26.0822 27.4723 26.0742C27.5143 26.0202 27.5473 25.9612 27.5733 25.8962C27.5803 25.8782 27.5913 25.8642 27.5963 25.8472C27.5973 25.8432 27.6003 25.8402 27.6013 25.8362L29.3423 19.9122L35.9893 12.3882C36.1843 12.1672 36.2223 11.8482 36.0843 11.5872C35.9463 11.3262 35.6543 11.1782 35.3673 11.2162L31.3623 11.7362C31.3483 11.6842 31.3413 11.6312 31.3153 11.5822L29.3313 7.9242C29.1803 7.6472 28.8623 7.50419 28.5563 7.57019L26.3613 8.0542L24.6853 0.555177C24.6353 0.331177 24.4813 0.147191 24.2713 0.0571909C24.0613 -0.0338091 23.8203 -0.014812 23.6253 0.104188L16.4373 4.48023L14.4093 3.81421C14.2173 3.74821 14.0033 3.7732 13.8273 3.8772C2.3573 10.6762 2.27931 10.7552 2.19531 10.8392C1.99831 11.0352 1.94831 11.3182 2.03131 11.5652C1.98031 11.7622 1.99632 11.9722 2.11532 12.1432L8.23629 20.9062L0.0653031 38.7452C-0.0176969 38.9262 -0.0166811 39.1232 0.0503189 39.2952C0.0223189 39.3722 0.000300617 39.4522 0.000300617 39.5362V48.0752C0.000300617 48.1372 0.00931795 48.2002 0.024318 48.2602L2.9533 59.0942L0.0212967 70.8202C-0.0317033 71.0322 0.0152945 71.2562 0.150295 71.4282C0.285295 71.6002 0.491316 71.7002 0.709316 71.7002H9.04931C9.33031 71.7002 9.5853 71.5332 9.6983 71.2752L13.3703 62.8762C16.1593 71.7132 16.5833 71.7702 16.9493 71.8132C17.0353 71.8232 17.2153 71.8432 18.9553 71.8432C18.9563 71.8432 18.9563 71.8432 18.9563 71.8432C23.4783 71.8432 34.4113 71.7022 34.5723 71.7002L68.0183 71.8452C68.0193 71.8452 68.0203 71.8452 68.0213 71.8452C68.3793 71.8452 68.6813 71.5772 68.7243 71.2212C68.7693 70.8622 68.5383 70.5292 68.1883 70.4452ZM14.2293 26.8812L25.3003 26.4132L20.7243 31.6552L14.2293 26.8812ZM28.6263 18.5812L23.2813 14.2132L33.6773 12.8642L28.6263 18.5812ZM29.8893 11.9272L22.1693 12.9282L21.8503 10.5012L28.3393 9.0672L29.8893 11.9272ZM23.5173 1.82721L24.7173 7.19922L18.2063 5.06018L23.5173 1.82721ZM14.2733 5.25922L24.2183 8.52619L20.9473 9.24921L4.9483 10.8062C7.2483 9.43021 11.2363 7.06122 14.2733 5.25922ZM20.4503 10.7202L20.8563 13.8122C20.8583 13.8252 20.8603 13.8382 20.8623 13.8512C20.8773 13.9312 20.9053 14.0052 20.9433 14.0722C20.9433 14.0732 20.9433 14.0732 20.9433 14.0732C20.9433 14.0742 20.9443 14.0742 20.9443 14.0742C20.9773 14.1322 21.0183 14.1862 21.0693 14.2342C21.0703 14.2352 21.0703 14.2352 21.0703 14.2352C21.0853 14.2492 21.0993 14.2612 21.1143 14.2742L27.8933 19.8132L26.3833 24.9502L13.1813 25.5082L3.97131 12.3242L20.4503 10.7202ZM12.1153 26.4572L5.26031 34.1812L2.5003 36.8322L9.17932 22.2522L12.1153 26.4572ZM12.4723 61.3912L8.58529 70.2812H1.6163L4.37332 59.2582C4.40232 59.1412 4.4013 59.0182 4.3703 58.9022L1.4183 47.9812V39.8372L5.41632 35.9962C8.81032 47.8322 11.1603 55.7612 12.8023 61.0562C12.6633 61.1262 12.5413 61.2352 12.4723 61.3912ZM18.9563 70.4242C18.1273 70.4242 17.6693 70.4192 17.4153 70.4142C16.1973 67.8602 10.3793 48.1672 6.56231 34.8492L12.9233 27.6822L33.8583 43.0712V70.2902C31.3583 70.3202 22.8153 70.4242 18.9563 70.4242C18.9573 70.4242 18.9573 70.4242 18.9563 70.4242ZM35.2763 70.2832V63.9482L61.9653 70.3992L35.2763 70.2832Z" fill="#b0b0b0"/>
</svg>
