<svg width="60" height="46" viewBox="0 0 60 46" fill="none" xmlns="http://www.w3.org/2000/svg">
<path d="M44.225 0.2703C44.3203 0.40602 44.4565 0.867475 44.5518 1.28821L44.7016 2.06182H46.1723C47.6158 2.06182 47.643 2.06182 48.0242 2.46898C48.2694 2.71328 48.5553 2.87615 48.7732 2.87615C49.4541 2.87615 50.489 3.28331 51.0746 3.78548C51.6602 4.27407 51.6602 4.28764 51.5921 4.9934C51.4967 5.9163 50.7478 7.50424 49.6312 9.16006L48.7324 10.4901L48.9911 12.9603C49.3043 16.014 49.1682 18.552 48.4736 21.945C48.1605 23.5058 48.2422 24.1436 48.9094 25.6366C49.5903 27.1295 49.8354 27.3603 51.3333 27.8353C53.1444 28.4324 55.7454 29.7354 56.7939 30.5904C58.251 31.7848 59.0408 33.142 59.2179 34.7842C59.3132 35.7885 59.0817 36.4807 58.5234 36.82C57.9378 37.1729 57.4203 37.1458 56.8076 36.6979C56.3718 36.3857 56.1539 36.0464 55.473 34.5127L54.6696 32.6805L53.1853 32.3684C50.2439 31.7576 48.5281 31.3369 46.3357 30.6719C45.0965 30.3054 44.0207 30.0339 43.939 30.0746C43.7348 30.1561 42.9585 32.6941 42.7135 34.1463C42.4411 35.7207 42.4547 36.2093 42.7815 37.39C42.9994 38.1637 43.1355 38.4351 43.4896 38.7065C44.2114 39.2494 45.2463 40.2402 45.3825 40.4981C45.6685 41.0274 44.6471 42.0996 43.8573 42.0996C43.1764 42.0996 42.4138 41.7467 41.8011 41.136C40.8206 40.1588 40.1669 38.6794 39.6358 36.2093C39.4316 35.2321 38.9686 31.9748 38.9686 31.4862C38.9686 31.2419 38.5737 31.4183 37.7294 32.0426L36.8307 32.7077L36.7489 34.1192C36.6536 35.8157 36.3677 37.2543 35.7685 39.0459C35.5098 39.7923 35.3328 40.4166 35.36 40.4438C35.3872 40.471 35.8911 40.5524 36.4766 40.6202C37.1847 40.7016 37.6613 40.8238 37.9201 41.0138C38.1652 41.2038 38.7371 41.3666 39.5814 41.4889C41.9372 41.8417 43.3671 42.2624 43.8982 42.7375C44.225 43.0361 44.2114 43.8639 43.8709 44.2982C43.7212 44.4883 43.3126 44.7868 42.9585 44.9497L42.3185 45.2483L40.7253 44.8275C39.418 44.4747 38.8869 44.4069 37.6613 44.4069C34.7744 44.4069 32.5275 43.9726 31.9556 43.3075L31.6288 42.9139L30.73 43.1175C27.4618 43.8776 16.9218 44.7597 12.6187 44.6376C10.5761 44.5833 9.93608 44.5154 8.80585 44.2168C4.54354 43.1175 1.86092 40.4166 0.716999 36.06C0.0769986 33.6442 0.594461 31.1061 1.99708 29.749C2.33754 29.4232 2.59623 29.3011 3.00477 29.2739C3.318 29.2604 3.61754 29.3147 3.69923 29.4096C3.80823 29.5318 3.68562 30.224 3.29069 31.7848L2.73239 33.9834L2.92308 35.0964C3.33162 37.4307 4.73416 39.2087 7.10362 40.3759C9.15985 41.3802 10.5488 41.7331 12.3464 41.7195C13.9941 41.7195 16.8402 41.3395 18.7738 40.8645L20.0403 40.5659V40.0773C20.0266 39.8059 19.9722 38.7744 19.9041 37.7972C19.4275 30.8619 22.0557 24.7816 27.4755 20.262C29.5181 18.5655 30.7845 17.8054 32.7726 17.0726C36.1498 15.8239 38.5873 14.3988 39.0639 13.3945C39.2546 12.9874 39.2682 12.7431 39.132 11.5352C39.0367 10.6258 39.0231 9.81149 39.1048 9.1872C39.1728 8.65789 39.2273 7.87068 39.241 7.40923C39.241 6.96136 39.3091 6.52705 39.3908 6.44561C39.4997 6.33704 39.4725 6.0656 39.2546 5.42771C38.6554 3.59547 38.2742 0.840327 38.5465 0.311016C38.8325 -0.204725 39.2546 -0.0147153 40.9023 1.31535C41.7738 2.0211 42.5908 2.6047 42.6998 2.6047C43.0402 2.6047 43.3398 2.00753 43.4896 0.98962C43.5985 0.243155 43.6803 0.026001 43.8573 0.026001C43.9798 0.026001 44.1432 0.134578 44.225 0.2703Z" fill="#28BCE8"/>
</svg>
